# xmcd
# Copyright
#
# Track frame offsets:
#	150
#	17209
#	31118
#	48250
#	59439
#	88269
#	95818
#	112303
#	126919
#	141676
#	151941
#	163753
#	174439
#	187764
#
# Disc length: 2628 seconds
#
# Revision: 3
# Processed by: cddbd v1.4b41PL3 Copyright (c) Steve Scherf et al.
# Submitted via: CdAid 2001.04.01.00
#
DISCID=c50a420e
DTITLE=Jota Jotinha Jotão - Corno Pobre Corno Rico
DYEAR=1900
DGENRE=
TTITLE0=Corno Pobre Corno Rico
TTITLE1=Bandida
TTITLE2=O Ladrão Besta e o Ladrão Sabido
TTITLE3=O Banho de Mar
TTITLE4=O Corno Perguntado
TTITLE5=A Gorda e a Magra
TTITLE6=Matuto no Forró
TTITLE7=Do Rico para o Pobre
TTITLE8=As Modas de Hoje em Dia
TTITLE9=Nos Quarto da Minha Tia
TTITLE10=Desafio em Carreirão
TTITLE11=Melô do Chifrudo
TTITLE12=Flamengo e Corinthians
TTITLE13=Este Boi é Corno
EXTD=
EXTT0=
EXTT1=
EXTT2=
EXTT3=
EXTT4=
EXTT5=
EXTT6=
EXTT7=
EXTT8=
EXTT9=
EXTT10=
EXTT11=
EXTT12=
EXTT13=
PLAYORDER=
